#!OML:ASF E:/inclinewalkrobotboard/Project1/Captureday1/Session1/subject1.ASF
:FULLY-SPECIFIED
:DEGREES
126
root 0 0 0 1.96645517269208 -10.903836760115096 1.0832455497796145
lowerback -0.23644443064767673 -1.7677323458907095 -2.7506494475062233
upperback -0.49485129879750445 -2.328944831296322 1.945930080824692
thorax -0.16680252969327614 -1.1520033326748167 3.498908455489553
lowerneck -26.954155837058746 -1.872685624542728 -7.770082068339046
upperneck 24.45353783453502 0.07094410038690391 2.498527668786471
head 12.66386279124527 -0.5243912512464128 2.344603660828507
rclavicle 3.1902842224502E-15 -2.0577573066475548E-15
rhumerus -34.04835055317382 -2.561347655634039 -77.76294249672036
rradius 28.342972603969876
rwrist 20.365462836053908
rhand -17.810396845175127 9.042028656327307
rfingers 7.125019999999938
rthumb 8.449368585617133 -20.755216882230858
lclavicle 2.2136774226774868E-15 2.7450391774977714E-16
lhumerus -20.218309522336103 -10.168902424671916 90.9070024340827
lradius 67.41615143176868
lwrist 3.7645838084169188
lhand -28.57339911685325 23.107628748747544
lfingers 7.125020000000014
lthumb -1.9666214087083755 53.17630641501997
rfemur -34.680806385281194 5.678107631502927 19.063924024120183
rtibia 18.461087691144
rfoot -6.715524473721624 -12.46121764071526
rtoes -2.528367337136471
lfemur 20.484244031457635 -3.45655570204229 -26.184867958841217
ltibia 32.20336756653208
lfoot -4.65931040773196 -12.527051505068112
ltoes -17.47673023339691
127
root 0 0 0 1.905057805466291 -10.823659134399632 1.0265196781591897
lowerback -0.07050975250023006 -1.7176370683048905 -2.654392107230615
upperback -0.5261176612631561 -2.262849273498314 2.0560776731423496
thorax -0.2940952728865438 -1.1178529936923005 3.559060226549376
lowerneck -26.82181684098814 -1.7832902341334993 -7.592207382988498
upperneck 24.41631769360334 0.21239836295594772 2.3242120906357018
head 12.649592271652736 -0.49352865066669804 2.2849152735678757
rclavicle 1.839651537999405E-15 -2.3975495195430466E-15
rhumerus -34.065658680288394 -2.4986451980734246 -77.67373897017588
rradius 28.274991172755854
rwrist 20.373053092691094
rhand -17.7985336942074 9.059190512506374
rfingers 7.125019999999937
rthumb 8.460769563799815 -20.737542144254064
lclavicle 6.886424796917418E-16 -8.994427646067029E-18
lhumerus -20.252028859266925 -9.748227927241391 90.7628498241916
lradius 67.19329620775075
lwrist 3.7904921974619206
lhand -28.415938323712556 22.939244773470616
lfingers 7.125020000000013
lthumb -1.8184203445087368 53.012319955505795
rfemur -33.7028121029659 6.610717899009168 22.921797592703566
rtibia 14.708150181099384
rfoot -4.075648255695338 -10.130047065094976
rtoes 2.6038877895276435
lfemur 11.311294782350188 -2.389273899523779 -20.885491497187505
ltibia 40.34573421869336
lfoot 5.090887159783378 -15.829200573464306
ltoes -17.335641213298427
128
root 0 0 0 1.7707988985033554 -10.801162675815497 0.8477367333011013
lowerback 0.07166934658764879 -1.6312025567535335 -2.4859743514599106
upperback -0.5949479634233438 -2.14459528543706 2.066220312248778
thorax -0.4563518827227302 -1.0569056975488622 3.474351710016292
lowerneck -25.56651093193189 -1.558253587587168 -7.416096518186832
upperneck 26.68256355908666 0.5462849168838573 1.758331826269912
head 13.289523929692313 -0.49299368372922503 2.149580075825519
rclavicle 8.734427863150891E-16 -2.7316274084072546E-15
rhumerus -34.02823971668781 -3.3969775195172853 -77.93719427534013
rradius 28.356919217216387
rwrist 20.46365255314304
rhand -17.579905094301715 9.02319449361796
rfingers 7.1250199999999335
rthumb 8.671040857492114 -20.755707494245
lclavicle 7.215567777225836E-16 -7.880450917565603E-16
lhumerus -21.26296485876941 -7.146667302274355 91.14100830935658
lradius 66.06391826952807
lwrist 2.9007958273884555
lhand -28.39568348937929 21.854776746147447
lfingers 7.125020000000021
lthumb -1.7917176967196715 51.90263829192835
rfemur -19.568510430007223 7.196115145144952 33.897152168322116
rtibia 21.579594971827948
rfoot -5.21120680742181 -6.798063590136239
rtoes 12.20387199931541
lfemur -3.6308026004812675 -0.7985496920384854 -16.89032970825343
ltibia 50.36876980101138
lfoot 11.352479073631056 -14.169993773105393
ltoes -8.075283641310683
129
root 0 0 0 1.7120771817697855 -10.798955866742029 0.7770291128124794
lowerback 0.09727163327911925 -1.5944280076021755 -2.446582254322236
upperback -0.628148772517649 -2.0946147833812683 2.0117319181726563
thorax -0.5091482235951443 -1.0302625155825915 3.3970005778939374
lowerneck -24.97196645865711 -1.5043868228598118 -7.392953290581598
upperneck 27.851552327122782 0.6130339194036007 1.5665828363793115
head 13.611561049340917 -0.5203257669464513 2.1065570307325485
rclavicle -6.737549018836695E-16 -1.972685719713903E-15
rhumerus -33.8991765707969 -4.112208819636062 -78.36724209877191
rradius 28.626695350676993
rwrist 20.48877358737119
rhand -17.434083480604777 8.943362519014848
rfingers 7.1250199999999335
rthumb 8.811369073711255 -20.834489077180322
lclavicle -3.1040782763987933E-16 -1.1205509378284393E-15
lhumerus -21.783469883459233 -5.895092642752189 91.56067301095399
lradius 65.4452872077803
lwrist 2.281889627463881
lhand -28.60977610331276 21.26637668254025
lfingers 7.125020000000026
lthumb -1.9871031269485684 51.28719187279222
rfemur -12.770935436405914 7.190180779277935 36.57901000054245
rtibia 26.767639687222076
rfoot -10.342408588319177 -6.159940259273844
rtoes 14.69216754201629
lfemur -7.991442349225166 0.2548541388251695 -15.478701887699792
ltibia 53.07908542764767
lfoot 8.6912531859094 -12.094988063314279
ltoes -9.060812535965802
130
root 0 0 0 1.6970981110915926 -10.789217036143746 0.7518563435971115
lowerback 0.09408109982210755 -1.5769653704210345 -2.4481717582993707
upperback -0.6424781811754496 -2.0705745026003504 1.9815961000699316
thorax -0.5241722251077682 -1.01737260844336 3.3679085542752505
lowerneck -24.686710419180834 -1.4899781712829752 -7.414560908212221
upperneck 28.324998185342338 0.6187898813154727 1.5345320571710257
head 13.728689902557818 -0.534451792080755 2.105809722377325
rclavicle -2.9351813355470725E-15 -6.223543939772462E-16
rhumerus -33.68053007351821 -4.657439853297676 -78.95811885111557
rradius 29.051147745672864
rwrist 20.485870727922713
rhand -17.33667082862779 8.813958716688976
rfingers 7.125019999999939
rthumb 8.906028299943506 -20.973034614820293
lclavicle -1.6866252381014365E-15 -6.443094453367915E-16
lhumerus -22.01127880839297 -5.695899903374322 91.87012226967276
lradius 65.19165151748167
lwrist 1.98339648190704
lhand -28.814321791543417 20.947490869071878
lfingers 7.125020000000026
lthumb -2.181719125307845 50.95183115875908
rfemur -6.883266606728444 7.6524459748472085 37.9481138246031
rtibia 26.97879883282513
rfoot -15.624955916716571 -6.482462421419754
rtoes 14.320161121388495
lfemur -16.265281957512997 1.7982179426291145 -14.08716566158039
ltibia 55.747990466875535
lfoot 2.962823148761805 -7.960075606912816
ltoes -8.561233671294623
131
root 0 0 0 1.7001817562693768 -10.771038447075496 0.7438119388191426
lowerback 0.07605769870359325 -1.5628615435383335 -2.469248486973264
upperback -0.6536353804485887 -2.0502721874820193 1.9566749849512632
thorax -0.5274906149640378 -1.0064998441237059 3.354592769404547
lowerneck -24.505377084713476 -1.498716833060056 -7.4590641436888205
upperneck 28.530765064847795 0.5847869601906883 1.5801868132917642
head 13.763101975431066 -0.5491701800636121 2.1255827577055832
rclavicle -3.7429813516094755E-15 3.569630663059635E-16
rhumerus -33.25609171128005 -4.870858416450654 -79.76086564168666
rradius 29.649205182962017
rwrist 20.30976905056527
rhand -17.330337538091662 8.735722196577571
rfingers 7.125019999999942
rthumb 8.913218764076241 -21.068645134197418
lclavicle -1.3473053108890072E-15 8.538425451596574E-17
lhumerus -21.98183518428334 -5.561237826561777 92.02093542462696
lradius 65.06935800826106
lwrist 1.7911977998903645
lhand -28.983921636119156 20.86472140878112
lfingers 7.125020000000025
lthumb -2.346810840548194 50.857622418383414
rfemur -1.2343003537948452 8.239493886765906 38.644355557202005
rtibia 25.115068157137912
rfoot -20.352426234818452 -7.5729486006951925
rtoes 11.760667493033479
lfemur -21.423625061080187 2.8486488413961273 -13.731045169328828
ltibia 56.77722188097481
lfoot -1.4238719419513162 -5.0620947469882
ltoes -7.224412445127359
132
root 0 0 0 1.7106159912360874 -10.73831392156202 0.7504271591786377
lowerback 0.05676808591586613 -1.5487314555977951 -2.499476020839334
upperback -0.6627887068022613 -2.030873279356098 1.9365105479601648
thorax -0.5277336535504165 -0.9956658659678784 3.351582746622526
lowerneck -24.438287974607807 -1.5337061710917461 -7.508379440681411
upperneck 28.506849631186668 0.507537522899925 1.6866296422818474
head 13.72915772631419 -0.5692030973600395 2.1580528870237345
rclavicle -2.2225839535270354E-15 9.536401536766083E-16
rhumerus -32.47131362583239 -4.225133322913638 -80.76582443125051
rradius 30.448055090989907
rwrist 19.79873597058259
rhand -17.50525674063748 8.790163796761018
rfingers 7.125019999999941
rthumb 8.745168433280993 -21.033158662064395
lclavicle -1.4486989004665853E-16 5.501153783348488E-16
lhumerus -21.67637778754129 -5.141136266241841 91.9486595674224
lradius 64.93537374624653
lwrist 1.6745906785241949
lhand -29.054921604527618 20.83436676318758
lfingers 7.125020000000025
lthumb -2.4147221787178026 50.819345275199126
rfemur 2.0231715544297657 8.705748034329474 38.67289504736394
rtibia 22.518760467498716
rfoot -22.73148901329966 -8.47847526427003
rtoes 8.305481595903391
lfemur -24.210407704205434 2.7729541647640734 -13.19156533446891
ltibia 54.4494529676265
lfoot -3.6719519747927283 -3.219627789901385
ltoes -6.474483011398145
